<?xml version="1.0" standalone="no"?>
<!DOCTYPE svg PUBLIC "-//W3C//DTD SVG 20010904//EN"
 "http://www.w3.org/TR/2001/REC-SVG-20010904/DTD/svg10.dtd">
<svg version="1.0" xmlns="http://www.w3.org/2000/svg"
 width="16.000000pt" height="16.000000pt" viewBox="0 0 16.000000 16.000000"
 preserveAspectRatio="xMidYMid meet">
<metadata>
Created by potrace 1.11, written by Peter Selinger 2001-2013
</metadata>
<g transform="translate(0.000000,16.000000) scale(0.003077,-0.003077)"
fill="#000000" stroke="none">
<path d="M2585 4951 c-2 -5 -28 -21 -57 -36 -49 -25 -109 -60 -292 -169 -69
-41 -81 -56 -158 -196 -21 -38 -474 -823 -531 -920 -27 -47 -64 -110 -82 -140
-17 -30 -47 -82 -66 -115 -19 -33 -39 -69 -46 -80 -7 -11 -15 -26 -19 -34 -4
-7 -58 -101 -121 -209 -62 -107 -113 -196 -113 -199 0 -3 -8 -17 -19 -31 -10
-15 -29 -47 -43 -72 -30 -55 -113 -197 -401 -695 -60 -104 -123 -215 -140
-245 -16 -30 -36 -62 -43 -71 -8 -8 -14 -18 -14 -20 0 -5 -82 -150 -204 -358
-36 -62 -66 -115 -66 -116 0 -2 -36 -64 -80 -139 l-80 -137 0 -258 0 -257 37
-21 c115 -64 185 -104 287 -162 l89 -52 2161 1 c1189 1 2170 1 2180 1 11 0 60
24 110 53 50 30 107 62 126 73 19 10 71 40 115 66 l81 46 -1 253 0 253 -44 75
c-64 110 -111 191 -131 225 -15 27 -257 446 -433 750 -38 66 -81 140 -95 165
-23 42 -189 328 -407 705 -51 88 -102 176 -112 195 -11 19 -54 94 -95 165
-674 1169 -833 1443 -847 1457 -9 9 -92 61 -186 114 -237 136 -254 144 -260
135z m2150 -4711 c3 -6 -1 -7 -9 -4 -18 7 -21 14 -7 14 6 0 13 -4 16 -10z"/>
</g>
</svg>
