<?xml version="1.0" encoding="UTF-8" standalone="no"?><!DOCTYPE svg PUBLIC "-//W3C//DTD SVG 1.1//EN" "http://www.w3.org/Graphics/SVG/1.1/DTD/svg11.dtd"><svg width="100%" height="100%" viewBox="0 0 520 120" version="1.1" xmlns="http://www.w3.org/2000/svg" xmlns:xlink="http://www.w3.org/1999/xlink" xml:space="preserve" style="fill-rule:evenodd;clip-rule:evenodd;stroke-linejoin:round;stroke-miterlimit:1.41421;">
<g><path d="M119.451,118.535l10.453,-6.035l0,-12.5l-54.065,-93.714l-10.887,-6.187l-10.716,6.187l-3.981,77.302l69.196,34.947Z" style="fill:#005f79;"/><path d="M54.236,6.286l-54.005,93.54l19.64,15.738l34.365,-20.37l0,-39.02l10.802,-6.236l10.801,6.236l0,-24.944l-10.801,-6.236l-10.802,6.236l0,-24.944Z" style="fill:#d0d0d0;"/><path d="M0.231,99.826l0,12.807l10.447,5.902l108.366,0l-21.603,-12.472l10.801,-6.237l0,-12.472l-21.602,-12.472l0,12.472l-10.801,6.236l-21.603,-12.472l0,-12.472l-10.801,6.236l0,12.472l10.801,6.236l-21.602,12.473l-10.801,-6.237l0,-12.472l-21.602,12.472Z" style="fill:#707070;"/></g><path d="M155.034,93.357l0,-71.094l18.018,0c6.413,0 11.271,1.571 14.575,4.712c3.304,3.141 4.956,7.772 4.956,13.892c0,3.646 -0.846,6.819 -2.539,9.521c-1.693,2.702 -4.037,4.655 -7.031,5.86c3.45,0.879 6.242,2.889 8.374,6.03c2.132,3.141 3.198,6.828 3.198,11.059c0,6.185 -1.693,11.068 -5.078,14.649c-3.386,3.581 -8.187,5.371 -14.404,5.371l-20.069,0Zm5.567,-34.131l0,28.955l14.746,0c4.231,0 7.568,-1.302 10.009,-3.906c2.442,-2.604 3.663,-6.217 3.663,-10.84c0,-4.297 -1.132,-7.715 -3.394,-10.254c-2.262,-2.539 -5.412,-3.857 -9.448,-3.955l-15.576,0Zm0,-5.127l12.939,0c4.232,0 7.52,-1.123 9.863,-3.369c2.344,-2.246 3.516,-5.583 3.516,-10.01c0,-4.524 -1.148,-7.853 -3.442,-9.985c-2.295,-2.132 -5.77,-3.198 -10.425,-3.198l-12.451,0l0,26.562Z" style="fill:#fff;fill-rule:nonzero;"/><path d="M205.376,64.255c0,-7.617 1.725,-13.639 5.176,-18.066c3.45,-4.427 8.154,-6.641 14.111,-6.641c5.99,0 10.702,2.181 14.136,6.543c3.434,4.362 5.167,10.368 5.2,18.018l0,5.615c0,7.748 -1.733,13.786 -5.2,18.115c-3.467,4.33 -8.146,6.495 -14.038,6.495c-5.892,0 -10.563,-2.116 -14.014,-6.348c-3.45,-4.232 -5.241,-10.059 -5.371,-17.481l0,-6.25Zm5.469,5.469c0,6.087 1.229,10.873 3.686,14.356c2.458,3.483 5.868,5.224 10.23,5.224c4.459,0 7.869,-1.676 10.229,-5.029c2.36,-3.353 3.557,-8.154 3.589,-14.404l0,-5.616c0,-6.087 -1.237,-10.88 -3.711,-14.379c-2.474,-3.5 -5.875,-5.249 -10.205,-5.249c-4.199,0 -7.536,1.709 -10.01,5.127c-2.474,3.417 -3.743,8.121 -3.808,14.111l0,5.859Z" style="fill:#fff;fill-rule:nonzero;"/><path d="M269.634,61.863l11.572,-21.338l6.397,0l-14.991,25.928l15.576,26.904l-6.347,0l-12.158,-22.217l-12.207,22.217l-6.348,0l15.527,-26.904l-14.941,-25.928l6.348,0l11.572,21.338Z" style="fill:#fff;fill-rule:nonzero;"/><path d="M303.423,40.525l0.146,7.91c3.288,-5.924 8.008,-8.887 14.16,-8.887c6.804,0 11.198,3.239 13.184,9.717c1.66,-3.222 3.801,-5.648 6.421,-7.275c2.62,-1.628 5.477,-2.442 8.569,-2.442c9.506,0 14.372,6.12 14.6,18.36l0,35.449l-5.42,0l0,-35.107c-0.065,-4.558 -0.911,-7.951 -2.539,-10.181c-1.628,-2.23 -4.297,-3.345 -8.008,-3.345c-3.353,0.065 -6.185,1.367 -8.496,3.906c-2.311,2.54 -3.63,5.73 -3.955,9.571l0,35.156l-5.469,0l0,-34.961c0,-4.622 -0.854,-8.057 -2.563,-10.303c-1.709,-2.246 -4.37,-3.369 -7.984,-3.369c-2.962,0 -5.525,1.026 -7.69,3.076c-2.165,2.051 -3.735,4.981 -4.712,8.789l0,36.768l-5.42,0l0,-52.832l5.176,0Z" style="fill:#fff;fill-rule:nonzero;"/><path d="M402.593,93.357c-0.489,-1.693 -0.814,-4.134 -0.977,-7.324c-1.627,2.637 -3.719,4.679 -6.274,6.128c-2.556,1.448 -5.331,2.173 -8.325,2.173c-4.558,0 -8.106,-1.286 -10.645,-3.858c-2.539,-2.571 -3.809,-6.234 -3.809,-10.986c0,-5.176 1.766,-9.278 5.298,-12.305c3.532,-3.027 8.407,-4.557 14.624,-4.59l9.082,0l0,-7.373c0,-3.776 -0.935,-6.486 -2.807,-8.13c-1.872,-1.644 -4.614,-2.465 -8.228,-2.465c-3.353,0 -6.103,0.976 -8.252,2.929c-2.148,1.953 -3.222,4.476 -3.222,7.569l-5.42,-0.049c0,-4.33 1.627,-8 4.883,-11.011c3.255,-3.011 7.34,-4.517 12.255,-4.517c5.306,0 9.327,1.335 12.061,4.004c2.734,2.67 4.101,6.56 4.101,11.67l0,25.928c0,5.176 0.472,9.049 1.416,11.621l0,0.586l-5.761,0Zm-14.893,-4.248c3.19,0 6.014,-0.83 8.472,-2.49c2.458,-1.66 4.256,-3.874 5.395,-6.641l0,-12.842l-8.593,0c-4.948,0.065 -8.675,1.164 -11.182,3.296c-2.507,2.132 -3.76,5.005 -3.76,8.618c0,6.706 3.223,10.059 9.668,10.059Z" style="fill:#fff;fill-rule:nonzero;"/><path d="M429.888,27.048l0,13.477l9.033,0l0,4.883l-9.033,0l0,35.107c0,2.897 0.431,5.054 1.294,6.47c0.862,1.416 2.303,2.124 4.321,2.124c0.879,0 2.181,-0.163 3.906,-0.488l0.147,4.883c-1.237,0.553 -3.011,0.83 -5.323,0.83c-6.347,0 -9.602,-4.362 -9.765,-13.086l0,-35.84l-8.155,0l0,-4.883l8.155,0l0,-13.477l5.42,0Z" style="fill:#fff;fill-rule:nonzero;"/><path d="M456.792,93.357l-5.469,0l0,-52.832l5.469,0l0,52.832Zm-6.25,-68.066c0,-1.107 0.309,-2.051 0.928,-2.832c0.618,-0.782 1.497,-1.172 2.636,-1.172c1.14,0 2.027,0.39 2.662,1.172c0.634,0.781 0.952,1.725 0.952,2.832c0,1.106 -0.318,2.042 -0.952,2.807c-0.635,0.765 -1.522,1.148 -2.662,1.148c-1.139,0 -2.018,-0.383 -2.636,-1.148c-0.619,-0.765 -0.928,-1.701 -0.928,-2.807Z" style="fill:#fff;fill-rule:nonzero;"/><path d="M488.481,89.304c3.776,0 6.674,-1.058 8.692,-3.174c2.018,-2.115 3.109,-5.159 3.271,-9.13l5.225,0c-0.26,5.403 -1.986,9.643 -5.176,12.719c-3.19,3.076 -7.194,4.615 -12.012,4.615c-6.282,0 -11.027,-2.011 -14.233,-6.031c-3.206,-4.02 -4.842,-9.985 -4.907,-17.895l0,-6.446c0,-8.072 1.603,-14.16 4.809,-18.261c3.207,-4.102 7.968,-6.153 14.283,-6.153c5.241,0 9.375,1.652 12.402,4.956c3.027,3.305 4.639,7.919 4.834,13.843l-5.225,0c-0.162,-4.362 -1.269,-7.739 -3.32,-10.132c-2.051,-2.392 -4.948,-3.588 -8.691,-3.588c-4.688,0 -8.13,1.578 -10.328,4.736c-2.197,3.157 -3.295,8.008 -3.295,14.551l0,6.006c0,6.77 1.106,11.694 3.32,14.77c2.213,3.076 5.664,4.614 10.351,4.614Z" style="fill:#fff;fill-rule:nonzero;"/></svg>
